<svg width="79" height="50" viewBox="0 0 79 50" fill="none" xmlns="http://www.w3.org/2000/svg">
<path d="M22.2805 0C9.97536 0 0 11.1934 0 25C0 38.8066 9.9761 50 22.2805 50C34.5848 50 44.5609 38.8074 44.5609 25C44.5609 11.1926 34.5861 0 22.2805 0ZM57.8613 1.46447C51.7086 1.46447 46.7217 12.0042 46.7217 25.0004C46.7217 37.9966 51.7093 48.537 57.8621 48.537C64.0148 48.537 69.0024 37.9973 69.0024 25.0004H69.0016C69.0016 12.0005 64.0147 1.46447 57.8616 1.46447H57.8613ZM75.0816 3.91594C72.9182 3.91594 71.1643 13.3565 71.1643 25.0004C71.1643 36.6444 72.9171 46.0849 75.0816 46.0849C77.2461 46.0849 79 36.6419 79 25C79 13.3556 77.2453 3.91594 75.0818 3.91594H75.0816Z" fill="#4B5563"/>
</svg>
